# xmcd CD database file
#
# Track frame offsets:
#	150
#	53163
#	90770
#	132743
#	160801
#	203835
#
# Disc length: 3637 seconds
#
# Revision: 0
# Processed by: cddbd v1.5.2PL0 Copyright (c) Steve Scherf et al.
# Submitted via: CDex 1.51
#
DISCID=480e3306
DTITLE=Vaiyasaki Dasa - Hari Nam Ananda
DYEAR=1900
DGENRE=New Age
TTITLE0=Sri Radhe Gopala
TTITLE1=Chitta Chora
TTITLE2=On Namo Bhagavate
TTITLE3=Bhaja Mana Radhe Govinda
TTITLE4=Jaya Sita Ram
TTITLE5=Jai Govinda Jai Gopal
EXTD=
EXTT0=
EXTT1=
EXTT2=
EXTT3=
EXTT4=
EXTT5=
PLAYORDER=
